<?xml version="1.0" encoding="UTF-8" standalone="no"?>
<!DOCTYPE svg PUBLIC "-//W3C//DTD SVG 1.1//EN"
 "http://www.w3.org/Graphics/SVG/1.1/DTD/svg11.dtd">
<!-- Generated by graphviz version 2.42.4 (0)
 -->
<!-- Title: G Pages: 1 -->
<svg width="418pt" height="501pt"
 viewBox="0.00 0.00 417.94 501.00" xmlns="http://www.w3.org/2000/svg" xmlns:xlink="http://www.w3.org/1999/xlink">
<g id="graph0" class="graph" transform="scale(1 1) rotate(0) translate(4 497)">
<title>G</title>
<polygon fill="white" stroke="transparent" points="-4,4 -4,-497 413.94,-497 413.94,4 -4,4"/>
<text text-anchor="middle" x="204.97" y="-477.8" font-family="Arial" font-size="14.00">Authority safety ladder</text>
<!-- Contract -->
<g id="node1" class="node">
<title>Contract</title>
<polygon fill="none" stroke="black" points="289.97,-470 119.97,-470 119.97,-434 289.97,-434 289.97,-470"/>
<text text-anchor="middle" x="204.97" y="-448.3" font-family="Arial" font-size="14.00">1. Records and validators</text>
</g>
<!-- Shadow -->
<g id="node2" class="node">
<title>Shadow</title>
<polygon fill="none" stroke="black" points="277.97,-398 131.97,-398 131.97,-360 277.97,-360 277.97,-398"/>
<text text-anchor="middle" x="204.97" y="-382.8" font-family="Arial" font-size="14.00">2. Shadow evaluation</text>
<text text-anchor="middle" x="204.97" y="-367.8" font-family="Arial" font-size="14.00">zero writes</text>
</g>
<!-- Contract&#45;&gt;Shadow -->
<g id="edge1" class="edge">
<title>Contract&#45;&gt;Shadow</title>
<path fill="none" stroke="black" d="M204.97,-433.81C204.97,-426.11 204.97,-416.82 204.97,-408.15"/>
<polygon fill="black" stroke="black" points="208.47,-408.02 204.97,-398.02 201.47,-408.02 208.47,-408.02"/>
</g>
<!-- Report -->
<g id="node3" class="node">
<title>Report</title>
<polygon fill="none" stroke="black" points="302.97,-324 106.97,-324 106.97,-288 302.97,-288 302.97,-324"/>
<text text-anchor="middle" x="204.97" y="-302.3" font-family="Arial" font-size="14.00">3. Risk&#45;based evidence report</text>
</g>
<!-- Shadow&#45;&gt;Report -->
<g id="edge2" class="edge">
<title>Shadow&#45;&gt;Report</title>
<path fill="none" stroke="black" d="M204.97,-359.72C204.97,-351.97 204.97,-342.79 204.97,-334.27"/>
<polygon fill="black" stroke="black" points="208.47,-334 204.97,-324 201.47,-334 208.47,-334"/>
</g>
<!-- Compensation -->
<g id="node4" class="node">
<title>Compensation</title>
<polygon fill="none" stroke="black" points="318.47,-252 91.47,-252 91.47,-216 318.47,-216 318.47,-252"/>
<text text-anchor="middle" x="204.97" y="-230.3" font-family="Arial" font-size="14.00">4. Compensation + kill&#45;switch proof</text>
</g>
<!-- Report&#45;&gt;Compensation -->
<g id="edge3" class="edge">
<title>Report&#45;&gt;Compensation</title>
<path fill="none" stroke="black" d="M204.97,-287.7C204.97,-279.98 204.97,-270.71 204.97,-262.11"/>
<polygon fill="black" stroke="black" points="208.47,-262.1 204.97,-252.1 201.47,-262.1 208.47,-262.1"/>
</g>
<!-- Go -->
<g id="node5" class="node">
<title>Go</title>
<polygon fill="none" stroke="black" points="204.97,-180 0.03,-162 204.97,-144 409.92,-162 204.97,-180"/>
<text text-anchor="middle" x="204.97" y="-158.3" font-family="Arial" font-size="14.00">5. Explicit maintainer authorization</text>
</g>
<!-- Compensation&#45;&gt;Go -->
<g id="edge4" class="edge">
<title>Compensation&#45;&gt;Go</title>
<path fill="none" stroke="black" d="M204.97,-215.7C204.97,-207.98 204.97,-198.71 204.97,-190.11"/>
<polygon fill="black" stroke="black" points="208.47,-190.1 204.97,-180.1 201.47,-190.1 208.47,-190.1"/>
</g>
<!-- Canary -->
<g id="node6" class="node">
<title>Canary</title>
<polygon fill="none" stroke="black" points="261.97,-108 147.97,-108 147.97,-72 261.97,-72 261.97,-108"/>
<text text-anchor="middle" x="204.97" y="-86.3" font-family="Arial" font-size="14.00">6. Stable canary</text>
</g>
<!-- Go&#45;&gt;Canary -->
<g id="edge5" class="edge">
<title>Go&#45;&gt;Canary</title>
<path fill="none" stroke="black" d="M204.97,-143.7C204.97,-135.98 204.97,-126.71 204.97,-118.11"/>
<polygon fill="black" stroke="black" points="208.47,-118.1 204.97,-108.1 201.47,-118.1 208.47,-118.1"/>
</g>
<!-- Expand -->
<g id="node7" class="node">
<title>Expand</title>
<polygon fill="none" stroke="black" points="307.47,-36 102.47,-36 102.47,0 307.47,0 307.47,-36"/>
<text text-anchor="middle" x="204.97" y="-14.3" font-family="Arial" font-size="14.00">7. Separate expansion decision</text>
</g>
<!-- Canary&#45;&gt;Expand -->
<g id="edge6" class="edge">
<title>Canary&#45;&gt;Expand</title>
<path fill="none" stroke="black" d="M204.97,-71.7C204.97,-63.98 204.97,-54.71 204.97,-46.11"/>
<polygon fill="black" stroke="black" points="208.47,-46.1 204.97,-36.1 201.47,-46.1 208.47,-46.1"/>
</g>
</g>
</svg>
