<?xml version="1.0" encoding="UTF-8" standalone="no"?>
<!DOCTYPE svg PUBLIC "-//W3C//DTD SVG 1.1//EN"
 "http://www.w3.org/Graphics/SVG/1.1/DTD/svg11.dtd">
<!-- Generated by graphviz version 2.42.4 (0)
 -->
<!-- Title: G Pages: 1 -->
<svg width="295pt" height="789pt"
 viewBox="0.00 0.00 294.50 789.00" xmlns="http://www.w3.org/2000/svg" xmlns:xlink="http://www.w3.org/1999/xlink">
<g id="graph0" class="graph" transform="scale(1 1) rotate(0) translate(4 785)">
<title>G</title>
<polygon fill="white" stroke="transparent" points="-4,4 -4,-785 290.5,-785 290.5,4 -4,4"/>
<text text-anchor="middle" x="143.25" y="-765.8" font-family="Arial" font-size="14.00">Cache and selective escalation</text>
<!-- Key -->
<g id="node1" class="node">
<title>Key</title>
<polygon fill="none" stroke="black" points="184.5,-758 43.5,-758 43.5,-722 184.5,-722 184.5,-758"/>
<text text-anchor="middle" x="114" y="-736.3" font-family="Arial" font-size="14.00">Canonical cache key</text>
</g>
<!-- Lookup -->
<g id="node2" class="node">
<title>Lookup</title>
<polygon fill="none" stroke="black" points="188.5,-685 39.5,-685 39.5,-649 188.5,-649 188.5,-685"/>
<text text-anchor="middle" x="114" y="-663.3" font-family="Arial" font-size="14.00">Owner&#45;scoped lookup</text>
</g>
<!-- Key&#45;&gt;Lookup -->
<g id="edge1" class="edge">
<title>Key&#45;&gt;Lookup</title>
<path fill="none" stroke="black" d="M114,-721.81C114,-713.79 114,-704.05 114,-695.07"/>
<polygon fill="black" stroke="black" points="117.5,-695.03 114,-685.03 110.5,-695.03 117.5,-695.03"/>
</g>
<!-- Hit -->
<g id="node3" class="node">
<title>Hit</title>
<polygon fill="none" stroke="black" points="169.5,-544 22.5,-544 22.5,-506 169.5,-506 169.5,-544"/>
<text text-anchor="middle" x="96" y="-528.8" font-family="Arial" font-size="14.00">Cache hit</text>
<text text-anchor="middle" x="96" y="-513.8" font-family="Arial" font-size="14.00">zero new billed usage</text>
</g>
<!-- Lookup&#45;&gt;Hit -->
<g id="edge2" class="edge">
<title>Lookup&#45;&gt;Hit</title>
<path fill="none" stroke="black" d="M111.79,-648.83C108.76,-625.27 103.28,-582.6 99.64,-554.28"/>
<polygon fill="black" stroke="black" points="103.09,-553.67 98.34,-544.19 96.14,-554.56 103.09,-553.67"/>
<text text-anchor="middle" x="120" y="-619.8" font-family="Times,serif" font-size="14.00">hit</text>
</g>
<!-- Reserve -->
<g id="node4" class="node">
<title>Reserve</title>
<polygon fill="none" stroke="black" points="286.5,-598 121.5,-598 121.5,-562 286.5,-562 286.5,-598"/>
<text text-anchor="middle" x="204" y="-576.3" font-family="Arial" font-size="14.00">Acquire miss reservation</text>
</g>
<!-- Lookup&#45;&gt;Reserve -->
<g id="edge3" class="edge">
<title>Lookup&#45;&gt;Reserve</title>
<path fill="none" stroke="black" d="M132.21,-648.8C145.51,-636.24 163.71,-619.05 178.46,-605.12"/>
<polygon fill="black" stroke="black" points="180.95,-607.59 185.81,-598.18 176.14,-602.5 180.95,-607.59"/>
<text text-anchor="middle" x="182" y="-619.8" font-family="Times,serif" font-size="14.00">miss</text>
</g>
<!-- Output -->
<g id="node7" class="node">
<title>Output</title>
<polygon fill="none" stroke="black" points="200.5,-342 29.5,-342 29.5,-306 200.5,-306 200.5,-342"/>
<text text-anchor="middle" x="115" y="-320.3" font-family="Arial" font-size="14.00">Immutable representation</text>
</g>
<!-- Hit&#45;&gt;Output -->
<g id="edge7" class="edge">
<title>Hit&#45;&gt;Output</title>
<path fill="none" stroke="black" d="M97.72,-505.99C101.06,-471.03 108.43,-393.81 112.38,-352.44"/>
<polygon fill="black" stroke="black" points="115.89,-352.55 113.35,-342.26 108.92,-351.88 115.89,-352.55"/>
</g>
<!-- Run -->
<g id="node5" class="node">
<title>Run</title>
<polygon fill="none" stroke="black" points="251.5,-488 150.5,-488 150.5,-452 251.5,-452 251.5,-488"/>
<text text-anchor="middle" x="201" y="-466.3" font-family="Arial" font-size="14.00">Processor run</text>
</g>
<!-- Reserve&#45;&gt;Run -->
<g id="edge4" class="edge">
<title>Reserve&#45;&gt;Run</title>
<path fill="none" stroke="black" d="M203.52,-561.65C203.04,-544.56 202.31,-518.22 201.76,-498.32"/>
<polygon fill="black" stroke="black" points="205.26,-498.21 201.48,-488.31 198.26,-498.4 205.26,-498.21"/>
</g>
<!-- Commit -->
<g id="node6" class="node">
<title>Commit</title>
<polygon fill="none" stroke="black" points="269,-415 131,-415 131,-379 269,-379 269,-415"/>
<text text-anchor="middle" x="200" y="-393.3" font-family="Arial" font-size="14.00">Commit cache entry</text>
</g>
<!-- Run&#45;&gt;Commit -->
<g id="edge5" class="edge">
<title>Run&#45;&gt;Commit</title>
<path fill="none" stroke="black" d="M200.76,-451.81C200.64,-443.79 200.51,-434.05 200.38,-425.07"/>
<polygon fill="black" stroke="black" points="203.88,-424.98 200.24,-415.03 196.88,-425.08 203.88,-424.98"/>
</g>
<!-- Commit&#45;&gt;Output -->
<g id="edge6" class="edge">
<title>Commit&#45;&gt;Output</title>
<path fill="none" stroke="black" d="M179.42,-378.81C168.57,-369.74 155.08,-358.48 143.25,-348.6"/>
<polygon fill="black" stroke="black" points="145.31,-345.75 135.39,-342.03 140.82,-351.13 145.31,-345.75"/>
</g>
<!-- Quality -->
<g id="node8" class="node">
<title>Quality</title>
<polygon fill="none" stroke="black" points="198,-269 32,-269 32,-233 198,-233 198,-269"/>
<text text-anchor="middle" x="115" y="-247.3" font-family="Arial" font-size="14.00">Quality / sufficiency facts</text>
</g>
<!-- Output&#45;&gt;Quality -->
<g id="edge8" class="edge">
<title>Output&#45;&gt;Quality</title>
<path fill="none" stroke="black" d="M115,-305.81C115,-297.79 115,-288.05 115,-279.07"/>
<polygon fill="black" stroke="black" points="118.5,-279.03 115,-269.03 111.5,-279.03 118.5,-279.03"/>
</g>
<!-- Escalate -->
<g id="node9" class="node">
<title>Escalate</title>
<polygon fill="none" stroke="black" points="197,-182 33,-182 33,-146 197,-146 197,-182"/>
<text text-anchor="middle" x="115" y="-160.3" font-family="Arial" font-size="14.00">Bounded escalation plan</text>
</g>
<!-- Quality&#45;&gt;Escalate -->
<g id="edge9" class="edge">
<title>Quality&#45;&gt;Escalate</title>
<path fill="none" stroke="black" d="M115,-232.8C115,-221.16 115,-205.55 115,-192.24"/>
<polygon fill="black" stroke="black" points="118.5,-192.18 115,-182.18 111.5,-192.18 118.5,-192.18"/>
<text text-anchor="middle" x="155" y="-203.8" font-family="Times,serif" font-size="14.00">insufficient</text>
</g>
<!-- Stronger -->
<g id="node10" class="node">
<title>Stronger</title>
<polygon fill="none" stroke="black" points="180.5,-109 49.5,-109 49.5,-73 180.5,-73 180.5,-109"/>
<text text-anchor="middle" x="115" y="-87.3" font-family="Arial" font-size="14.00">Stronger processor</text>
</g>
<!-- Escalate&#45;&gt;Stronger -->
<g id="edge10" class="edge">
<title>Escalate&#45;&gt;Stronger</title>
<path fill="none" stroke="black" d="M115,-145.81C115,-137.79 115,-128.05 115,-119.07"/>
<polygon fill="black" stroke="black" points="118.5,-119.03 115,-109.03 111.5,-119.03 118.5,-119.03"/>
</g>
<!-- Supersede -->
<g id="node11" class="node">
<title>Supersede</title>
<polygon fill="none" stroke="black" points="230,-36 0,-36 0,0 230,0 230,-36"/>
<text text-anchor="middle" x="115" y="-14.3" font-family="Arial" font-size="14.00">Append superseding representation</text>
</g>
<!-- Stronger&#45;&gt;Supersede -->
<g id="edge11" class="edge">
<title>Stronger&#45;&gt;Supersede</title>
<path fill="none" stroke="black" d="M115,-72.81C115,-64.79 115,-55.05 115,-46.07"/>
<polygon fill="black" stroke="black" points="118.5,-46.03 115,-36.03 111.5,-46.03 118.5,-46.03"/>
</g>
</g>
</svg>
