<?xml version="1.0" encoding="UTF-8" standalone="no"?>
<!DOCTYPE svg PUBLIC "-//W3C//DTD SVG 1.1//EN"
 "http://www.w3.org/Graphics/SVG/1.1/DTD/svg11.dtd">
<!-- Generated by graphviz version 2.42.4 (0)
 -->
<!-- Title: G Pages: 1 -->
<svg width="500pt" height="355pt"
 viewBox="0.00 0.00 500.00 355.00" xmlns="http://www.w3.org/2000/svg" xmlns:xlink="http://www.w3.org/1999/xlink">
<g id="graph0" class="graph" transform="scale(1 1) rotate(0) translate(4 351)">
<title>G</title>
<polygon fill="white" stroke="transparent" points="-4,4 -4,-351 496,-351 496,4 -4,4"/>
<text text-anchor="middle" x="246" y="-331.8" font-family="Arial" font-size="14.00">Meeting understanding</text>
<!-- Transcript -->
<g id="node1" class="node">
<title>Transcript</title>
<polygon fill="none" stroke="black" points="318,-324 103,-324 103,-288 318,-288 318,-324"/>
<text text-anchor="middle" x="210.5" y="-302.3" font-family="Arial" font-size="14.00">Diarised transcript representation</text>
</g>
<!-- Candidates -->
<g id="node2" class="node">
<title>Candidates</title>
<polygon fill="none" stroke="black" points="316.5,-252 104.5,-252 104.5,-216 316.5,-216 316.5,-252"/>
<text text-anchor="middle" x="210.5" y="-230.3" font-family="Arial" font-size="14.00">Semantic candidates + evidence</text>
</g>
<!-- Transcript&#45;&gt;Candidates -->
<g id="edge1" class="edge">
<title>Transcript&#45;&gt;Candidates</title>
<path fill="none" stroke="black" d="M210.5,-287.7C210.5,-279.98 210.5,-270.71 210.5,-262.11"/>
<polygon fill="black" stroke="black" points="214,-262.1 210.5,-252.1 207,-262.1 214,-262.1"/>
</g>
<!-- Registers -->
<g id="node5" class="node">
<title>Registers</title>
<polygon fill="none" stroke="black" points="449.5,-180 173.5,-180 173.5,-144 449.5,-144 449.5,-180"/>
<text text-anchor="middle" x="311.5" y="-158.3" font-family="Arial" font-size="14.00">Action / Decision / Question / Risk registers</text>
</g>
<!-- Candidates&#45;&gt;Registers -->
<g id="edge2" class="edge">
<title>Candidates&#45;&gt;Registers</title>
<path fill="none" stroke="black" d="M235.21,-215.88C248.17,-206.89 264.23,-195.76 278.27,-186.03"/>
<polygon fill="black" stroke="black" points="280.47,-188.76 286.7,-180.19 276.48,-183.01 280.47,-188.76"/>
</g>
<!-- Aliases -->
<g id="node3" class="node">
<title>Aliases</title>
<polygon fill="none" stroke="black" points="492,-252 335,-252 335,-216 492,-216 492,-252"/>
<text text-anchor="middle" x="413.5" y="-230.3" font-family="Arial" font-size="14.00">Explicit speaker aliases</text>
</g>
<!-- Aliases&#45;&gt;Registers -->
<g id="edge4" class="edge">
<title>Aliases&#45;&gt;Registers</title>
<path fill="none" stroke="black" d="M388.55,-215.88C375.46,-206.89 359.24,-195.76 345.06,-186.03"/>
<polygon fill="black" stroke="black" points="346.77,-182.96 336.55,-180.19 342.81,-188.73 346.77,-182.96"/>
</g>
<!-- Participants -->
<g id="node4" class="node">
<title>Participants</title>
<polygon fill="none" stroke="black" points="490.5,-324 336.5,-324 336.5,-288 490.5,-288 490.5,-324"/>
<text text-anchor="middle" x="413.5" y="-302.3" font-family="Arial" font-size="14.00">Authorized participants</text>
</g>
<!-- Participants&#45;&gt;Aliases -->
<g id="edge5" class="edge">
<title>Participants&#45;&gt;Aliases</title>
<path fill="none" stroke="black" d="M413.5,-287.7C413.5,-279.98 413.5,-270.71 413.5,-262.11"/>
<polygon fill="black" stroke="black" points="417,-262.1 413.5,-252.1 410,-262.1 417,-262.1"/>
</g>
<!-- Matches -->
<g id="node6" class="node">
<title>Matches</title>
<polygon fill="none" stroke="black" points="207,-108 0,-108 0,-72 207,-72 207,-108"/>
<text text-anchor="middle" x="103.5" y="-86.3" font-family="Arial" font-size="14.00">Existing&#45;work match candidates</text>
</g>
<!-- Registers&#45;&gt;Matches -->
<g id="edge6" class="edge">
<title>Registers&#45;&gt;Matches</title>
<path fill="none" stroke="black" d="M260.88,-143.97C231.69,-134.14 194.81,-121.73 164.08,-111.39"/>
<polygon fill="black" stroke="black" points="164.94,-107.98 154.34,-108.11 162.7,-114.62 164.94,-107.98"/>
</g>
<!-- Conflicts -->
<g id="node7" class="node">
<title>Conflicts</title>
<polygon fill="none" stroke="black" points="398,-108 225,-108 225,-72 398,-72 398,-108"/>
<text text-anchor="middle" x="311.5" y="-86.3" font-family="Arial" font-size="14.00">Non&#45;blocking conflict facts</text>
</g>
<!-- Registers&#45;&gt;Conflicts -->
<g id="edge8" class="edge">
<title>Registers&#45;&gt;Conflicts</title>
<path fill="none" stroke="black" d="M311.5,-143.7C311.5,-135.98 311.5,-126.71 311.5,-118.11"/>
<polygon fill="black" stroke="black" points="315,-118.1 311.5,-108.1 308,-118.1 315,-118.1"/>
</g>
<!-- Review -->
<g id="node8" class="node">
<title>Review</title>
<polygon fill="none" stroke="black" points="416.5,-36 206.5,-36 206.5,0 416.5,0 416.5,-36"/>
<text text-anchor="middle" x="311.5" y="-14.3" font-family="Arial" font-size="14.00">Capture&#45;centred grouped review</text>
</g>
<!-- Registers&#45;&gt;Review -->
<g id="edge3" class="edge">
<title>Registers&#45;&gt;Review</title>
<path fill="none" stroke="black" d="M364.72,-143.96C381.39,-135.84 397.92,-124.23 407.5,-108 415.63,-94.22 415.63,-85.78 407.5,-72 399.64,-58.69 387.11,-48.48 373.66,-40.76"/>
<polygon fill="black" stroke="black" points="375.2,-37.62 364.72,-36.04 371.93,-43.81 375.2,-37.62"/>
</g>
<!-- Matches&#45;&gt;Review -->
<g id="edge7" class="edge">
<title>Matches&#45;&gt;Review</title>
<path fill="none" stroke="black" d="M154.12,-71.97C183.31,-62.14 220.19,-49.73 250.92,-39.39"/>
<polygon fill="black" stroke="black" points="252.3,-42.62 260.66,-36.11 250.06,-35.98 252.3,-42.62"/>
</g>
<!-- Conflicts&#45;&gt;Review -->
<g id="edge9" class="edge">
<title>Conflicts&#45;&gt;Review</title>
<path fill="none" stroke="black" d="M311.5,-71.7C311.5,-63.98 311.5,-54.71 311.5,-46.11"/>
<polygon fill="black" stroke="black" points="315,-46.1 311.5,-36.1 308,-46.1 315,-46.1"/>
</g>
</g>
</svg>
