<?xml version="1.0" encoding="UTF-8" standalone="no"?>
<!DOCTYPE svg PUBLIC "-//W3C//DTD SVG 1.1//EN"
 "http://www.w3.org/Graphics/SVG/1.1/DTD/svg11.dtd">
<!-- Generated by graphviz version 2.42.4 (0)
 -->
<!-- Title: G Pages: 1 -->
<svg width="2038pt" height="67pt"
 viewBox="0.00 0.00 2038.00 67.00" xmlns="http://www.w3.org/2000/svg" xmlns:xlink="http://www.w3.org/1999/xlink">
<g id="graph0" class="graph" transform="scale(1 1) rotate(0) translate(4 63)">
<title>G</title>
<polygon fill="white" stroke="transparent" points="-4,4 -4,-63 2034,-63 2034,4 -4,4"/>
<text text-anchor="middle" x="1015" y="-43.8" font-family="Arial" font-size="14.00">Router v1 decision sequence</text>
<!-- Profile -->
<g id="node1" class="node">
<title>Profile</title>
<polygon fill="none" stroke="black" points="160,-36 0,-36 0,0 160,0 160,-36"/>
<text text-anchor="middle" x="80" y="-14.3" font-family="Arial" font-size="14.00">Resolve effective profile</text>
</g>
<!-- Freeze -->
<g id="node2" class="node">
<title>Freeze</title>
<polygon fill="none" stroke="black" points="365,-36 196,-36 196,0 365,0 365,-36"/>
<text text-anchor="middle" x="280.5" y="-14.3" font-family="Arial" font-size="14.00">Freeze snapshot + digest</text>
</g>
<!-- Profile&#45;&gt;Freeze -->
<g id="edge1" class="edge">
<title>Profile&#45;&gt;Freeze</title>
<path fill="none" stroke="black" d="M160.02,-18C168.49,-18 177.17,-18 185.79,-18"/>
<polygon fill="black" stroke="black" points="185.87,-21.5 195.87,-18 185.87,-14.5 185.87,-21.5"/>
</g>
<!-- Registry -->
<g id="node3" class="node">
<title>Registry</title>
<polygon fill="none" stroke="black" points="604,-36 401,-36 401,0 604,0 604,-36"/>
<text text-anchor="middle" x="502.5" y="-14.3" font-family="Arial" font-size="14.00">Read registry / health snapshot</text>
</g>
<!-- Freeze&#45;&gt;Registry -->
<g id="edge2" class="edge">
<title>Freeze&#45;&gt;Registry</title>
<path fill="none" stroke="black" d="M365.3,-18C373.68,-18 382.27,-18 390.87,-18"/>
<polygon fill="black" stroke="black" points="390.96,-21.5 400.96,-18 390.96,-14.5 390.96,-21.5"/>
</g>
<!-- Inputs -->
<g id="node4" class="node">
<title>Inputs</title>
<polygon fill="none" stroke="black" points="796,-36 640,-36 640,0 796,0 796,-36"/>
<text text-anchor="middle" x="718" y="-14.3" font-family="Arial" font-size="14.00">Validate input contracts</text>
</g>
<!-- Registry&#45;&gt;Inputs -->
<g id="edge3" class="edge">
<title>Registry&#45;&gt;Inputs</title>
<path fill="none" stroke="black" d="M604.31,-18C612.83,-18 621.4,-18 629.8,-18"/>
<polygon fill="black" stroke="black" points="629.96,-21.5 639.96,-18 629.96,-14.5 629.96,-21.5"/>
</g>
<!-- Egress -->
<g id="node5" class="node">
<title>Egress</title>
<polygon fill="none" stroke="black" points="1017,-36 832,-36 832,0 1017,0 1017,-36"/>
<text text-anchor="middle" x="924.5" y="-14.3" font-family="Arial" font-size="14.00">Check locality / host / region</text>
</g>
<!-- Inputs&#45;&gt;Egress -->
<g id="edge4" class="edge">
<title>Inputs&#45;&gt;Egress</title>
<path fill="none" stroke="black" d="M796.02,-18C804.4,-18 813.03,-18 821.65,-18"/>
<polygon fill="black" stroke="black" points="821.75,-21.5 831.75,-18 821.75,-14.5 821.75,-21.5"/>
</g>
<!-- Consent -->
<g id="node6" class="node">
<title>Consent</title>
<polygon fill="none" stroke="black" points="1205,-36 1053,-36 1053,0 1205,0 1205,-36"/>
<text text-anchor="middle" x="1129" y="-14.3" font-family="Arial" font-size="14.00">Check current consent</text>
</g>
<!-- Egress&#45;&gt;Consent -->
<g id="edge5" class="edge">
<title>Egress&#45;&gt;Consent</title>
<path fill="none" stroke="black" d="M1017.27,-18C1025.75,-18 1034.32,-18 1042.74,-18"/>
<polygon fill="black" stroke="black" points="1042.92,-21.5 1052.92,-18 1042.92,-14.5 1042.92,-21.5"/>
</g>
<!-- Budget -->
<g id="node7" class="node">
<title>Budget</title>
<polygon fill="none" stroke="black" points="1444,-36 1241,-36 1241,0 1444,0 1444,-36"/>
<text text-anchor="middle" x="1342.5" y="-14.3" font-family="Arial" font-size="14.00">Reserve deadline / cost budget</text>
</g>
<!-- Consent&#45;&gt;Budget -->
<g id="edge6" class="edge">
<title>Consent&#45;&gt;Budget</title>
<path fill="none" stroke="black" d="M1205.16,-18C1213.44,-18 1221.99,-18 1230.59,-18"/>
<polygon fill="black" stroke="black" points="1230.69,-21.5 1240.69,-18 1230.69,-14.5 1230.69,-21.5"/>
</g>
<!-- Preference -->
<g id="node8" class="node">
<title>Preference</title>
<polygon fill="none" stroke="black" points="1649,-36 1480,-36 1480,0 1649,0 1649,-36"/>
<text text-anchor="middle" x="1564.5" y="-14.3" font-family="Arial" font-size="14.00">Apply ordered preference</text>
</g>
<!-- Budget&#45;&gt;Preference -->
<g id="edge7" class="edge">
<title>Budget&#45;&gt;Preference</title>
<path fill="none" stroke="black" d="M1444.16,-18C1452.61,-18 1461.13,-18 1469.52,-18"/>
<polygon fill="black" stroke="black" points="1469.68,-21.5 1479.68,-18 1469.68,-14.5 1469.68,-21.5"/>
</g>
<!-- Receipt -->
<g id="node9" class="node">
<title>Receipt</title>
<polygon fill="none" stroke="black" points="1843,-36 1685,-36 1685,0 1843,0 1843,-36"/>
<text text-anchor="middle" x="1764" y="-14.3" font-family="Arial" font-size="14.00">Persist full route receipt</text>
</g>
<!-- Preference&#45;&gt;Receipt -->
<g id="edge8" class="edge">
<title>Preference&#45;&gt;Receipt</title>
<path fill="none" stroke="black" d="M1649.26,-18C1657.63,-18 1666.15,-18 1674.56,-18"/>
<polygon fill="black" stroke="black" points="1674.77,-21.5 1684.77,-18 1674.77,-14.5 1674.77,-21.5"/>
</g>
<!-- Dispatch -->
<g id="node10" class="node">
<title>Dispatch</title>
<polygon fill="none" stroke="black" points="2030,-36 1879,-36 1879,0 2030,0 2030,-36"/>
<text text-anchor="middle" x="1954.5" y="-14.3" font-family="Arial" font-size="14.00">Dispatch chosen route</text>
</g>
<!-- Receipt&#45;&gt;Dispatch -->
<g id="edge9" class="edge">
<title>Receipt&#45;&gt;Dispatch</title>
<path fill="none" stroke="black" d="M1843.03,-18C1851.55,-18 1860.25,-18 1868.84,-18"/>
<polygon fill="black" stroke="black" points="1868.86,-21.5 1878.86,-18 1868.86,-14.5 1868.86,-21.5"/>
</g>
</g>
</svg>
