<?xml version="1.0" encoding="UTF-8" standalone="no"?>
<!DOCTYPE svg PUBLIC "-//W3C//DTD SVG 1.1//EN"
 "http://www.w3.org/Graphics/SVG/1.1/DTD/svg11.dtd">
<!-- Generated by graphviz version 2.42.4 (0)
 -->
<!-- Title: G Pages: 1 -->
<svg width="1261pt" height="229pt"
 viewBox="0.00 0.00 1261.00 229.00" xmlns="http://www.w3.org/2000/svg" xmlns:xlink="http://www.w3.org/1999/xlink">
<g id="graph0" class="graph" transform="scale(1 1) rotate(0) translate(4 225)">
<title>G</title>
<polygon fill="white" stroke="transparent" points="-4,4 -4,-225 1257,-225 1257,4 -4,4"/>
<text text-anchor="middle" x="626.5" y="-205.8" font-family="Arial" font-size="14.00">Content&#45;free runtime metrics</text>
<!-- Runs -->
<g id="node1" class="node">
<title>Runs</title>
<polygon fill="none" stroke="black" points="192.5,-198 4.5,-198 4.5,-162 192.5,-162 192.5,-198"/>
<text text-anchor="middle" x="98.5" y="-176.3" font-family="Arial" font-size="14.00">ProcessingRun / usage facts</text>
</g>
<!-- Guard -->
<g id="node5" class="node">
<title>Guard</title>
<polygon fill="none" stroke="black" points="385,-117 233,-117 233,-81 385,-81 385,-117"/>
<text text-anchor="middle" x="309" y="-95.3" font-family="Arial" font-size="14.00">Metric privacy allowlist</text>
</g>
<!-- Runs&#45;&gt;Guard -->
<g id="edge1" class="edge">
<title>Runs&#45;&gt;Guard</title>
<path fill="none" stroke="black" d="M170.55,-161.96C179.54,-159.2 188.54,-156.2 197,-153 220.29,-144.19 245.31,-132.26 265.69,-121.84"/>
<polygon fill="black" stroke="black" points="267.43,-124.89 274.7,-117.18 264.21,-118.67 267.43,-124.89"/>
</g>
<!-- Candidates -->
<g id="node2" class="node">
<title>Candidates</title>
<polygon fill="none" stroke="black" points="170,-144 27,-144 27,-108 170,-108 170,-144"/>
<text text-anchor="middle" x="98.5" y="-122.3" font-family="Arial" font-size="14.00">Candidate state facts</text>
</g>
<!-- Candidates&#45;&gt;Guard -->
<g id="edge2" class="edge">
<title>Candidates&#45;&gt;Guard</title>
<path fill="none" stroke="black" d="M170.09,-116.86C186.98,-114.67 205.18,-112.31 222.66,-110.05"/>
<polygon fill="black" stroke="black" points="223.38,-113.49 232.85,-108.73 222.48,-106.55 223.38,-113.49"/>
</g>
<!-- Bindings -->
<g id="node3" class="node">
<title>Bindings</title>
<polygon fill="none" stroke="black" points="165.5,-90 31.5,-90 31.5,-54 165.5,-54 165.5,-90"/>
<text text-anchor="middle" x="98.5" y="-68.3" font-family="Arial" font-size="14.00">Target binding facts</text>
</g>
<!-- Bindings&#45;&gt;Guard -->
<g id="edge3" class="edge">
<title>Bindings&#45;&gt;Guard</title>
<path fill="none" stroke="black" d="M165.76,-80.58C183.85,-82.92 203.71,-85.49 222.7,-87.95"/>
<polygon fill="black" stroke="black" points="222.48,-91.45 232.84,-89.27 223.38,-84.51 222.48,-91.45"/>
</g>
<!-- Outcomes -->
<g id="node4" class="node">
<title>Outcomes</title>
<polygon fill="none" stroke="black" points="197,-36 0,-36 0,0 197,0 197,-36"/>
<text text-anchor="middle" x="98.5" y="-14.3" font-family="Arial" font-size="14.00">ProposalOutcome / Feedback</text>
</g>
<!-- Outcomes&#45;&gt;Guard -->
<g id="edge4" class="edge">
<title>Outcomes&#45;&gt;Guard</title>
<path fill="none" stroke="black" d="M170.55,-36.04C179.54,-38.8 188.54,-41.8 197,-45 220.29,-53.81 245.31,-65.74 265.69,-76.16"/>
<polygon fill="black" stroke="black" points="264.21,-79.33 274.7,-80.82 267.43,-73.11 264.21,-79.33"/>
</g>
<!-- Projection -->
<g id="node6" class="node">
<title>Projection</title>
<polygon fill="none" stroke="black" points="600,-117 421,-117 421,-81 600,-81 600,-117"/>
<text text-anchor="middle" x="510.5" y="-95.3" font-family="Arial" font-size="14.00">Content&#45;free fact projection</text>
</g>
<!-- Guard&#45;&gt;Projection -->
<g id="edge5" class="edge">
<title>Guard&#45;&gt;Projection</title>
<path fill="none" stroke="black" d="M385.14,-99C393.47,-99 402.05,-99 410.63,-99"/>
<polygon fill="black" stroke="black" points="410.67,-102.5 420.67,-99 410.67,-95.5 410.67,-102.5"/>
</g>
<!-- Calculator -->
<g id="node7" class="node">
<title>Calculator</title>
<polygon fill="none" stroke="black" points="815,-117 636,-117 636,-81 815,-81 815,-117"/>
<text text-anchor="middle" x="725.5" y="-95.3" font-family="Arial" font-size="14.00">Versioned metric dictionary</text>
</g>
<!-- Projection&#45;&gt;Calculator -->
<g id="edge6" class="edge">
<title>Projection&#45;&gt;Calculator</title>
<path fill="none" stroke="black" d="M600.29,-99C608.65,-99 617.16,-99 625.6,-99"/>
<polygon fill="black" stroke="black" points="625.86,-102.5 635.86,-99 625.85,-95.5 625.86,-102.5"/>
</g>
<!-- Report -->
<g id="node8" class="node">
<title>Report</title>
<polygon fill="none" stroke="black" points="1059,-117 851,-117 851,-81 1059,-81 1059,-117"/>
<text text-anchor="middle" x="955" y="-95.3" font-family="Arial" font-size="14.00">Reproducible CLI / JSON report</text>
</g>
<!-- Calculator&#45;&gt;Report -->
<g id="edge7" class="edge">
<title>Calculator&#45;&gt;Report</title>
<path fill="none" stroke="black" d="M815.11,-99C823.54,-99 832.16,-99 840.78,-99"/>
<polygon fill="black" stroke="black" points="840.88,-102.5 850.88,-99 840.88,-95.5 840.88,-102.5"/>
</g>
<!-- Dashboard -->
<g id="node9" class="node">
<title>Dashboard</title>
<polygon fill="none" stroke="black" points="1238,-144 1110,-144 1110,-108 1238,-108 1238,-144"/>
<text text-anchor="middle" x="1174" y="-122.3" font-family="Arial" font-size="14.00">Control dashboard</text>
</g>
<!-- Report&#45;&gt;Dashboard -->
<g id="edge8" class="edge">
<title>Report&#45;&gt;Dashboard</title>
<path fill="none" stroke="black" d="M1059.1,-111.83C1072.73,-113.52 1086.48,-115.23 1099.48,-116.85"/>
<polygon fill="black" stroke="black" points="1099.37,-120.37 1109.72,-118.13 1100.23,-113.42 1099.37,-120.37"/>
</g>
<!-- Shadow -->
<g id="node10" class="node">
<title>Shadow</title>
<polygon fill="none" stroke="black" points="1253,-90 1095,-90 1095,-54 1253,-54 1253,-90"/>
<text text-anchor="middle" x="1174" y="-68.3" font-family="Arial" font-size="14.00">CF&#45;22 evidence section</text>
</g>
<!-- Report&#45;&gt;Shadow -->
<g id="edge9" class="edge">
<title>Report&#45;&gt;Shadow</title>
<path fill="none" stroke="black" d="M1059.1,-86.17C1067.65,-85.11 1076.25,-84.04 1084.68,-82.99"/>
<polygon fill="black" stroke="black" points="1085.37,-86.43 1094.86,-81.72 1084.5,-79.48 1085.37,-86.43"/>
</g>
</g>
</svg>
